<mxfile host="app.diagrams.net" modified="2020-08-26T05:50:19.750Z" agent="5.0 (Windows NT 10.0; Win64; x64) AppleWebKit/537.36 (KHTML, like Gecko) Chrome/84.0.4147.135 Safari/537.36" etag="114pitHzJk7nYwNOQ4u3" version="13.6.5" type="github">
  <diagram name="Page-1" id="13e1069c-82ec-6db2-03f1-153e76fe0fe0">
    <mxGraphModel dx="1185" dy="670" grid="1" gridSize="10" guides="1" tooltips="1" connect="1" arrows="1" fold="1" page="1" pageScale="1" pageWidth="4681" pageHeight="3300" background="#ffffff" math="0" shadow="0">
      <root>
        <mxCell id="0" />
        <mxCell id="1" parent="0" />
        <mxCell id="b2PtK0ISg53wSsYbWz4A-2" value="TMS-client" style="shape=umlLifeline;perimeter=lifelinePerimeter;whiteSpace=wrap;html=1;container=1;collapsible=0;recursiveResize=0;outlineConnect=0;rounded=1;shadow=0;comic=0;labelBackgroundColor=none;strokeWidth=1;fontFamily=Verdana;fontSize=12;align=center;" vertex="1" parent="1">
          <mxGeometry x="240" y="110" width="100" height="690" as="geometry" />
        </mxCell>
        <mxCell id="b2PtK0ISg53wSsYbWz4A-3" value="" style="html=1;points=[];perimeter=orthogonalPerimeter;rounded=0;shadow=0;comic=0;labelBackgroundColor=none;strokeWidth=1;fontFamily=Verdana;fontSize=12;align=center;" vertex="1" parent="b2PtK0ISg53wSsYbWz4A-2">
          <mxGeometry x="45" y="115" width="10" height="230" as="geometry" />
        </mxCell>
        <mxCell id="b2PtK0ISg53wSsYbWz4A-4" value="KoaHTTPserver" style="shape=umlLifeline;perimeter=lifelinePerimeter;whiteSpace=wrap;html=1;container=1;collapsible=0;recursiveResize=0;outlineConnect=0;rounded=1;shadow=0;comic=0;labelBackgroundColor=none;strokeWidth=1;fontFamily=Verdana;fontSize=12;align=center;" vertex="1" parent="1">
          <mxGeometry x="380" y="110" width="100" height="690" as="geometry" />
        </mxCell>
        <mxCell id="b2PtK0ISg53wSsYbWz4A-5" value="" style="html=1;points=[];perimeter=orthogonalPerimeter;rounded=0;shadow=0;comic=0;labelBackgroundColor=none;strokeWidth=1;fontFamily=Verdana;fontSize=12;align=center;" vertex="1" parent="b2PtK0ISg53wSsYbWz4A-4">
          <mxGeometry x="45" y="100" width="10" height="520" as="geometry" />
        </mxCell>
        <mxCell id="b2PtK0ISg53wSsYbWz4A-30" value="Alt" style="shape=umlFrame;whiteSpace=wrap;html=1;rounded=1;fillColor=none;fontColor=#99CCFF;strokeColor=#99CCFF;" vertex="1" parent="b2PtK0ISg53wSsYbWz4A-4">
          <mxGeometry x="80" y="163" width="215" height="117" as="geometry" />
        </mxCell>
        <mxCell id="b2PtK0ISg53wSsYbWz4A-31" value="getWorker" style="html=1;verticalAlign=middle;endArrow=block;labelBackgroundColor=none;fontFamily=Verdana;fontSize=12;elbow=vertical;edgeStyle=orthogonalEdgeStyle;curved=1;entryX=0.99;entryY=0.261;entryPerimeter=0;exitX=1.038;exitY=0.345;exitPerimeter=0;entryDx=0;entryDy=0;" edge="1" parent="b2PtK0ISg53wSsYbWz4A-4">
          <mxGeometry x="0.0172" relative="1" as="geometry">
            <mxPoint x="195.48000000000002" y="223.9999999999999" as="sourcePoint" />
            <mxPoint x="195" y="260.9799999999999" as="targetPoint" />
            <Array as="points">
              <mxPoint x="250.10000000000002" y="224" />
              <mxPoint x="250.10000000000002" y="261" />
            </Array>
            <mxPoint as="offset" />
          </mxGeometry>
        </mxCell>
        <mxCell id="b2PtK0ISg53wSsYbWz4A-32" value="[Worker exist]" style="text;html=1;strokeColor=none;fillColor=none;align=center;verticalAlign=middle;whiteSpace=wrap;rounded=0;dashed=1;dashPattern=1 4;fontColor=#99CCFF;" vertex="1" parent="b2PtK0ISg53wSsYbWz4A-4">
          <mxGeometry x="90" y="200" width="90" height="20" as="geometry" />
        </mxCell>
        <mxCell id="b2PtK0ISg53wSsYbWz4A-34" value="[Worker not exist]" style="text;html=1;strokeColor=none;fillColor=none;align=center;verticalAlign=middle;whiteSpace=wrap;rounded=0;dashed=1;dashPattern=1 4;fontColor=#99CCFF;" vertex="1" parent="b2PtK0ISg53wSsYbWz4A-4">
          <mxGeometry x="85" y="240" width="100" height="20" as="geometry" />
        </mxCell>
        <mxCell id="b2PtK0ISg53wSsYbWz4A-6" value="MediaSoup" style="shape=umlLifeline;perimeter=lifelinePerimeter;whiteSpace=wrap;html=1;container=1;collapsible=0;recursiveResize=0;outlineConnect=0;rounded=1;shadow=0;comic=0;labelBackgroundColor=none;strokeWidth=1;fontFamily=Verdana;fontSize=12;align=center;" vertex="1" parent="1">
          <mxGeometry x="520" y="110" width="100" height="690" as="geometry" />
        </mxCell>
        <mxCell id="b2PtK0ISg53wSsYbWz4A-7" value="TMS-server" style="shape=umlLifeline;perimeter=lifelinePerimeter;whiteSpace=wrap;html=1;container=1;collapsible=0;recursiveResize=0;outlineConnect=0;rounded=1;shadow=0;comic=0;labelBackgroundColor=none;strokeWidth=1;fontFamily=Verdana;fontSize=17;align=center;fontColor=#FF0000;" vertex="1" parent="1">
          <mxGeometry x="710" y="80" width="100" height="720" as="geometry" />
        </mxCell>
        <mxCell id="b2PtK0ISg53wSsYbWz4A-8" value=":Object" style="shape=umlLifeline;perimeter=lifelinePerimeter;whiteSpace=wrap;html=1;container=1;collapsible=0;recursiveResize=0;outlineConnect=0;rounded=1;shadow=0;comic=0;labelBackgroundColor=none;strokeWidth=1;fontFamily=Verdana;fontSize=12;align=center;" vertex="1" parent="1">
          <mxGeometry x="850" y="110" width="100" height="580" as="geometry" />
        </mxCell>
        <mxCell id="b2PtK0ISg53wSsYbWz4A-9" value=":Object" style="shape=umlLifeline;perimeter=lifelinePerimeter;whiteSpace=wrap;html=1;container=1;collapsible=0;recursiveResize=0;outlineConnect=0;rounded=1;shadow=0;comic=0;labelBackgroundColor=none;strokeWidth=1;fontFamily=Verdana;fontSize=12;align=center;" vertex="1" parent="1">
          <mxGeometry x="990" y="110" width="100" height="580" as="geometry" />
        </mxCell>
        <mxCell id="b2PtK0ISg53wSsYbWz4A-10" value="Client" style="shape=umlLifeline;perimeter=lifelinePerimeter;whiteSpace=wrap;html=1;container=1;collapsible=0;recursiveResize=0;outlineConnect=0;rounded=1;shadow=0;comic=0;labelBackgroundColor=none;strokeWidth=1;fontFamily=Verdana;fontSize=17;align=center;fontColor=#FF0000;" vertex="1" parent="1">
          <mxGeometry x="40" y="80" width="100" height="720" as="geometry" />
        </mxCell>
        <mxCell id="b2PtK0ISg53wSsYbWz4A-11" value="" style="html=1;points=[];perimeter=orthogonalPerimeter;rounded=0;shadow=0;comic=0;labelBackgroundColor=none;strokeWidth=1;fontFamily=Verdana;fontSize=12;align=center;" vertex="1" parent="b2PtK0ISg53wSsYbWz4A-10">
          <mxGeometry x="45" y="130" width="10" height="440" as="geometry" />
        </mxCell>
        <mxCell id="b2PtK0ISg53wSsYbWz4A-12" value="" style="html=1;points=[];perimeter=orthogonalPerimeter;rounded=0;shadow=0;comic=0;labelBackgroundColor=none;strokeWidth=1;fontFamily=Verdana;fontSize=12;align=center;" vertex="1" parent="1">
          <mxGeometry x="565" y="220" width="10" height="190" as="geometry" />
        </mxCell>
        <mxCell id="b2PtK0ISg53wSsYbWz4A-13" value="" style="html=1;points=[];perimeter=orthogonalPerimeter;rounded=0;shadow=0;comic=0;labelBackgroundColor=none;strokeWidth=1;fontFamily=Verdana;fontSize=12;align=center;" vertex="1" parent="1">
          <mxGeometry x="755" y="230" width="10" height="40" as="geometry" />
        </mxCell>
        <mxCell id="b2PtK0ISg53wSsYbWz4A-15" value="" style="html=1;points=[];perimeter=orthogonalPerimeter;rounded=0;shadow=0;comic=0;labelBackgroundColor=none;strokeColor=#000000;strokeWidth=1;fillColor=#FFFFFF;fontFamily=Verdana;fontSize=12;fontColor=#000000;align=center;" vertex="1" parent="1">
          <mxGeometry x="1035" y="490" width="10" height="30" as="geometry" />
        </mxCell>
        <mxCell id="b2PtK0ISg53wSsYbWz4A-21" value="Note" style="shape=note;whiteSpace=wrap;html=1;size=14;verticalAlign=top;align=left;spacingTop=-6;rounded=0;shadow=0;comic=0;labelBackgroundColor=none;strokeWidth=1;fontFamily=Verdana;fontSize=12" vertex="1" parent="1">
          <mxGeometry x="850" y="60" width="100" height="35" as="geometry" />
        </mxCell>
        <mxCell id="b2PtK0ISg53wSsYbWz4A-22" value="Note" style="shape=note;whiteSpace=wrap;html=1;size=14;verticalAlign=top;align=left;spacingTop=-6;rounded=0;shadow=0;comic=0;labelBackgroundColor=none;strokeWidth=1;fontFamily=Verdana;fontSize=12" vertex="1" parent="1">
          <mxGeometry x="990" y="60" width="100" height="35" as="geometry" />
        </mxCell>
        <mxCell id="b2PtK0ISg53wSsYbWz4A-23" value="Koa" style="text;html=1;strokeColor=none;fillColor=none;align=center;verticalAlign=middle;whiteSpace=wrap;rounded=0;fontSize=19;fontColor=#FF0000;" vertex="1" parent="1">
          <mxGeometry x="395" y="60" width="70" height="40" as="geometry" />
        </mxCell>
        <mxCell id="b2PtK0ISg53wSsYbWz4A-24" value="" style="endArrow=classic;html=1;fontSize=17;fontColor=#FF0000;entryX=0;entryY=0;entryDx=0;entryDy=0;entryPerimeter=0;" edge="1" parent="1" source="b2PtK0ISg53wSsYbWz4A-10" target="b2PtK0ISg53wSsYbWz4A-5">
          <mxGeometry width="50" height="50" relative="1" as="geometry">
            <mxPoint x="150" y="260" as="sourcePoint" />
            <mxPoint x="180" y="220" as="targetPoint" />
          </mxGeometry>
        </mxCell>
        <mxCell id="b2PtK0ISg53wSsYbWz4A-25" value="HTTP: joinRoom(rid)" style="edgeLabel;html=1;align=center;verticalAlign=middle;resizable=0;points=[];fontSize=12;" vertex="1" connectable="0" parent="b2PtK0ISg53wSsYbWz4A-24">
          <mxGeometry x="-0.0636" relative="1" as="geometry">
            <mxPoint x="-76.33" y="-10" as="offset" />
          </mxGeometry>
        </mxCell>
        <mxCell id="b2PtK0ISg53wSsYbWz4A-26" value="" style="endArrow=classic;html=1;entryX=0;entryY=0;entryDx=0;entryDy=0;entryPerimeter=0;" edge="1" parent="1" source="b2PtK0ISg53wSsYbWz4A-5" target="b2PtK0ISg53wSsYbWz4A-12">
          <mxGeometry width="50" height="50" relative="1" as="geometry">
            <mxPoint x="460" y="270" as="sourcePoint" />
            <mxPoint x="510" y="220" as="targetPoint" />
          </mxGeometry>
        </mxCell>
        <mxCell id="b2PtK0ISg53wSsYbWz4A-27" value="findWorker" style="edgeLabel;html=1;align=center;verticalAlign=middle;resizable=0;points=[];" vertex="1" connectable="0" parent="b2PtK0ISg53wSsYbWz4A-26">
          <mxGeometry x="-0.2436" y="-1" relative="1" as="geometry">
            <mxPoint x="15.83" y="-11" as="offset" />
          </mxGeometry>
        </mxCell>
        <mxCell id="b2PtK0ISg53wSsYbWz4A-29" value="creatWorker" style="html=1;verticalAlign=middle;endArrow=block;labelBackgroundColor=none;fontFamily=Verdana;fontSize=12;elbow=vertical;edgeStyle=orthogonalEdgeStyle;curved=1;entryX=0.99;entryY=0.261;entryPerimeter=0;exitX=1.038;exitY=0.345;exitPerimeter=0;entryDx=0;entryDy=0;" edge="1" parent="1">
          <mxGeometry x="0.0172" relative="1" as="geometry">
            <mxPoint x="575.4800000000001" y="288.9999999999999" as="sourcePoint" />
            <mxPoint x="575.0000000000001" y="325.9799999999999" as="targetPoint" />
            <Array as="points">
              <mxPoint x="630.1" y="289" />
              <mxPoint x="630.1" y="326" />
            </Array>
            <mxPoint as="offset" />
          </mxGeometry>
        </mxCell>
        <mxCell id="b2PtK0ISg53wSsYbWz4A-35" value="checkWorkerExist" style="html=1;verticalAlign=middle;endArrow=block;labelBackgroundColor=none;fontFamily=Verdana;fontSize=12;elbow=vertical;edgeStyle=orthogonalEdgeStyle;curved=1;entryX=0.99;entryY=0.261;entryPerimeter=0;exitX=1.038;exitY=0.345;exitPerimeter=0;entryDx=0;entryDy=0;" edge="1" parent="1">
          <mxGeometry x="0.0172" relative="1" as="geometry">
            <mxPoint x="575.4799999999998" y="230.03" as="sourcePoint" />
            <mxPoint x="575" y="267.0099999999999" as="targetPoint" />
            <Array as="points">
              <mxPoint x="630.1" y="230.03" />
              <mxPoint x="630.1" y="267.03" />
            </Array>
            <mxPoint as="offset" />
          </mxGeometry>
        </mxCell>
        <mxCell id="b2PtK0ISg53wSsYbWz4A-42" value="return" style="html=1;verticalAlign=bottom;endArrow=open;dashed=1;endSize=8;fontColor=#99CCFF;entryX=0.967;entryY=0.947;entryDx=0;entryDy=0;entryPerimeter=0;" edge="1" parent="1">
          <mxGeometry x="-0.0025" relative="1" as="geometry">
            <mxPoint x="565" y="410" as="sourcePoint" />
            <mxPoint x="434.6700000000001" y="410.09" as="targetPoint" />
            <mxPoint as="offset" />
          </mxGeometry>
        </mxCell>
        <mxCell id="b2PtK0ISg53wSsYbWz4A-45" value="Alt" style="shape=umlFrame;whiteSpace=wrap;html=1;rounded=1;fillColor=none;fontColor=#99CCFF;strokeColor=#99CCFF;" vertex="1" parent="1">
          <mxGeometry x="460" y="502" width="215" height="117" as="geometry" />
        </mxCell>
        <mxCell id="b2PtK0ISg53wSsYbWz4A-46" value="get&lt;span style=&quot;font-family: &amp;#34;helvetica&amp;#34;&quot;&gt;Router&lt;/span&gt;" style="html=1;verticalAlign=middle;endArrow=block;labelBackgroundColor=none;fontFamily=Verdana;fontSize=12;elbow=vertical;edgeStyle=orthogonalEdgeStyle;curved=1;entryX=0.99;entryY=0.261;entryPerimeter=0;exitX=1.038;exitY=0.345;exitPerimeter=0;entryDx=0;entryDy=0;" edge="1" parent="1">
          <mxGeometry x="0.0172" relative="1" as="geometry">
            <mxPoint x="575.48" y="562.9999999999999" as="sourcePoint" />
            <mxPoint x="575" y="599.9799999999999" as="targetPoint" />
            <Array as="points">
              <mxPoint x="630.1" y="563" />
              <mxPoint x="630.1" y="600" />
            </Array>
            <mxPoint as="offset" />
          </mxGeometry>
        </mxCell>
        <mxCell id="b2PtK0ISg53wSsYbWz4A-47" value="[Router exist]" style="text;html=1;strokeColor=none;fillColor=none;align=center;verticalAlign=middle;whiteSpace=wrap;rounded=0;dashed=1;dashPattern=1 4;fontColor=#99CCFF;" vertex="1" parent="1">
          <mxGeometry x="470" y="539" width="90" height="20" as="geometry" />
        </mxCell>
        <mxCell id="b2PtK0ISg53wSsYbWz4A-48" value="[Router&amp;nbsp;not exist]" style="text;html=1;strokeColor=none;fillColor=none;align=center;verticalAlign=middle;whiteSpace=wrap;rounded=0;dashed=1;dashPattern=1 4;fontColor=#99CCFF;" vertex="1" parent="1">
          <mxGeometry x="465" y="579" width="100" height="20" as="geometry" />
        </mxCell>
        <mxCell id="b2PtK0ISg53wSsYbWz4A-49" value="" style="html=1;points=[];perimeter=orthogonalPerimeter;rounded=0;shadow=0;comic=0;labelBackgroundColor=none;strokeWidth=1;fontFamily=Verdana;fontSize=12;align=center;" vertex="1" parent="1">
          <mxGeometry x="565" y="449" width="10" height="191" as="geometry" />
        </mxCell>
        <mxCell id="b2PtK0ISg53wSsYbWz4A-50" value="findRouter" style="edgeLabel;html=1;align=center;verticalAlign=middle;resizable=0;points=[];" vertex="1" connectable="0" parent="1">
          <mxGeometry x="499.97285714285704" y="439" as="geometry" />
        </mxCell>
        <mxCell id="b2PtK0ISg53wSsYbWz4A-51" value="creatRouter" style="html=1;verticalAlign=middle;endArrow=block;labelBackgroundColor=none;fontFamily=Verdana;fontSize=12;elbow=vertical;edgeStyle=orthogonalEdgeStyle;curved=1;entryX=0.99;entryY=0.261;entryPerimeter=0;exitX=1.038;exitY=0.345;exitPerimeter=0;entryDx=0;entryDy=0;" edge="1" parent="1">
          <mxGeometry x="0.0172" relative="1" as="geometry">
            <mxPoint x="575.48" y="517.9999999999999" as="sourcePoint" />
            <mxPoint x="575" y="554.9799999999999" as="targetPoint" />
            <Array as="points">
              <mxPoint x="630.1" y="518" />
              <mxPoint x="630.1" y="555" />
            </Array>
            <mxPoint as="offset" />
          </mxGeometry>
        </mxCell>
        <mxCell id="b2PtK0ISg53wSsYbWz4A-52" value="checkRouterExist" style="html=1;verticalAlign=middle;endArrow=block;labelBackgroundColor=none;fontFamily=Verdana;fontSize=12;elbow=vertical;edgeStyle=orthogonalEdgeStyle;curved=1;entryX=0.99;entryY=0.261;entryPerimeter=0;exitX=1.038;exitY=0.345;exitPerimeter=0;entryDx=0;entryDy=0;" edge="1" parent="1">
          <mxGeometry x="0.0172" relative="1" as="geometry">
            <mxPoint x="575.4799999999998" y="459.03" as="sourcePoint" />
            <mxPoint x="575" y="496.0099999999999" as="targetPoint" />
            <Array as="points">
              <mxPoint x="630.1" y="459.03" />
              <mxPoint x="630.1" y="496.03" />
            </Array>
            <mxPoint as="offset" />
          </mxGeometry>
        </mxCell>
        <mxCell id="b2PtK0ISg53wSsYbWz4A-53" value="" style="endArrow=classic;html=1;entryX=0;entryY=0;entryDx=0;entryDy=0;entryPerimeter=0;" edge="1" parent="1">
          <mxGeometry width="50" height="50" relative="1" as="geometry">
            <mxPoint x="435" y="449" as="sourcePoint" />
            <mxPoint x="565" y="449" as="targetPoint" />
          </mxGeometry>
        </mxCell>
        <mxCell id="b2PtK0ISg53wSsYbWz4A-55" value="return" style="html=1;verticalAlign=bottom;endArrow=open;dashed=1;endSize=8;fontColor=#99CCFF;entryX=0.967;entryY=0.947;entryDx=0;entryDy=0;entryPerimeter=0;" edge="1" parent="1">
          <mxGeometry x="-0.0025" relative="1" as="geometry">
            <mxPoint x="565.14" y="640" as="sourcePoint" />
            <mxPoint x="434.81000000000006" y="640.0899999999999" as="targetPoint" />
            <mxPoint as="offset" />
          </mxGeometry>
        </mxCell>
      </root>
    </mxGraphModel>
  </diagram>
</mxfile>
